<?xml version="1.0" encoding="utf-8"?>
<!-- Generator: Adobe Illustrator 26.0.3, SVG Export Plug-In . SVG Version: 6.00 Build 0)  -->
<svg version="1.1" id="Layer_1" xmlns="http://www.w3.org/2000/svg" xmlns:xlink="http://www.w3.org/1999/xlink" x="0px" y="0px"
	 viewBox="0 0 300 100" style="enable-background:new 0 0 300 100;" xml:space="preserve">
<style type="text/css">
	.st0{opacity:0.6;enable-background:new    ;}
	.st1{opacity:0.7;enable-background:new    ;}
</style>
<path class="st0" d="M30.9,43.9c0,0,42.9-34.5,87.5-14.2c77.1,41.6,113.3-2,146.6-4.7c48.7-4.1,55.3,45.3,55.3,45.3L335,95.6H30.9
	V43.9z"/>
<path class="st0" d="M-36.8,63.8c0,0,44-53.7,88.6-33.4c77.3,35.1,114-5.3,147.3-8.1c48.7-4.1,77.9,22.8,77.9,22.8l-13.4,46.3
	l-299.2,4.8L-36.8,63.8z"/>
<path class="st1" d="M43.4,98.3c0,0,48.3-68.9,109.1-68.9c65.9,0,98,67.9,98,67.9v3.7H42.4L43.4,98.3z"/>
<path d="M-33.4,60.6c0,0,49.1-29.5,113.4-12.9c81.8,21.1,116.9-2,152.2-12.1c53.1-15.3,103,39.2,103,39.2l2.4,29.2l-372-2.7
	L-33.4,60.6z"/>
</svg>
